<svg xmlns="http://www.w3.org/2000/svg" width="100" height="100" viewBox="0 0 100 100" fill="none">
  <path d="M0 50C0 22.3858 22.3858 0 50 0C77.6142 0 100 22.3858 100 50C100 77.6142 77.6142 100 50 100C22.3858 100 0 77.6142 0 50Z" fill="none" stroke="#FFEDAB" stroke-width="0.5" stroke-dasharray="5 5"/>
  <path d="M20 50C20 33.4315 33.4315 20 50 20C66.5685 20 80 33.4315 80 50C80 66.5685 66.5685 80 50 80C33.4315 80 20 66.5685 20 50Z" fill="none" stroke="#FFEDAB" stroke-width="0.5" stroke-dasharray="5 5"/>
  <path d="M35 50C35 41.7157 41.7157 35 50 35C58.2843 35 65 41.7157 65 50C65 58.2843 58.2843 65 50 65C41.7157 65 35 58.2843 35 50Z" fill="none" stroke="#FFEDAB" stroke-width="0.5" stroke-dasharray="5 5"/>
</svg>
